<svg width="714" height="184" xmlns="http://www.w3.org/2000/svg" xmlns:xlink="http://www.w3.org/1999/xlink" overflow="hidden"><defs><clipPath id="clip0"><rect x="326" y="268" width="714" height="184"/></clipPath></defs><g clip-path="url(#clip0)" transform="translate(-326 -268)"><path d="M407.668 338.998 394.883 370.932 382.098 402.867 376.911 403.029 376.486 402.051C376.253 401.513 370.478 387.126 363.653 370.08L351.245 339.088 351.298 398.836 351.897 399.954C355.486 406.657 361.492 413.915 367.667 419.011 371.947 422.543 375.804 425.073 381.007 427.762 385.813 430.245 392.593 432.542 398.476 433.681 403.009 434.559 406.835 434.919 411.631 434.921 415.877 434.923 419.166 434.656 423.095 433.993 427.924 433.177 428.855 432.944 433.397 431.417 438.816 429.594 443.941 427.134 448.771 424.036 452.071 421.919 453.227 421.113 454.206 420.246 454.762 419.755 455.691 418.947 456.273 418.451 457.289 417.583 457.622 417.282 459.219 415.791 460.072 414.994 462.426 412.496 463.392 411.363 463.763 410.928 464.191 410.43 464.344 410.256 465.291 409.176 467.022 406.848 468.504 404.661L469.648 402.973 407.827 403.025ZM410.598 298.564C409.012 298.565 407.609 298.603 406.827 298.683 406.074 298.761 404.956 298.854 404.344 298.89 402.01 299.028 398.612 299.573 396.327 300.175 395.551 300.379 394.196 300.713 393.315 300.916 390.175 301.639 385.868 303.204 382.957 304.679 382.034 305.146 380.584 305.859 379.734 306.263 376.388 307.853 371.847 310.86 368.151 313.935 364.745 316.769 361.299 320.266 359.095 323.126 358.488 323.913 357.35 325.361 356.566 326.345 355.781 327.329 354.868 328.597 354.537 329.163L353.935 330.192 415.804 330.14 415.91 394.05 422.038 378.727C425.409 370.299 431.163 355.919 434.825 346.772L441.483 330.14 444.017 330.114C445.934 330.094 446.595 330.121 446.731 330.222 446.829 330.296 447.766 332.54 448.813 335.209 449.86 337.878 455.58 352.204 461.525 367.044L472.333 394.026 472.333 336.156 471.372 334.143C467.913 326.899 462.382 319.861 455.955 314.525 452.411 311.584 449.381 309.541 444.79 306.998 439.995 304.343 433.276 301.753 428.389 300.677 427.756 300.538 426.282 300.213 425.114 299.955 422.746 299.432 420.996 299.156 418.023 298.838 416.391 298.663 413.24 298.563 410.598 298.564ZM411.977 269C412.291 269 412.677 269.004 413.163 269.012 415.31 269.045 415.415 269.057 416.414 269.376 418.616 270.08 420.397 271.075 421.705 272.332 422.345 272.946 423.443 274.343 423.834 275.04 423.997 275.33 424.22 275.7 424.331 275.862L424.532 276.157 425.134 275.508C425.495 275.12 426.008 274.713 426.411 274.496 426.783 274.297 427.377 273.948 427.732 273.722 428.087 273.496 428.716 273.218 429.128 273.104 429.541 272.991 430.206 272.797 430.607 272.673 431.753 272.32 434.856 272.293 436.25 272.624 440.193 273.561 443.785 276.384 445.283 279.727 445.808 280.898 446.256 282.337 446.386 283.266 446.629 285.014 446.48 287.019 445.996 288.505L445.706 289.395 447.503 290.328C452.812 293.083 457.563 296.208 462.795 300.389 468.932 305.292 475.257 311.81 479.81 317.923 482.274 321.232 484.481 324.526 485.794 326.857 488.229 331.178 488.443 331.6 489.977 335.101 492.74 341.405 494.322 347.278 495.364 355.103 495.946 359.477 496 360.451 496 366.609 496 372.669 495.957 373.481 495.408 377.692 493.769 390.264 489.124 402.699 482.179 413.106 481.714 413.803 480.834 415.128 480.224 416.051 477.969 419.46 471.833 426.178 467.526 429.953 463.84 433.183 462.637 434.169 461.336 435.024 460.585 435.518 459.264 436.433 458.4 437.058 456.549 438.398 453.653 440.049 449.405 442.188 443.696 445.062 438.689 446.95 432.604 448.522 430.194 449.145 426.992 449.81 424.786 450.146 419.594 450.937 418.623 451 411.736 451 405.296 451 404.826 450.977 400.906 450.461 395.351 449.732 389.487 448.398 384.476 446.725 383.294 446.33 377.913 443.942 376.498 443.185 376.208 443.029 375.423 442.622 374.755 442.281 374.087 441.94 373.35 441.552 373.117 441.42 372.885 441.288 372.314 440.97 371.849 440.714 369.699 439.527 365.972 437.164 363.713 435.555 359.089 432.261 355.649 429.353 351.773 425.465 347.463 421.141 344.542 417.563 340.956 412.219 340.075 410.905 338.196 407.853 338.196 407.735 338.196 407.714 337.906 407.204 337.55 406.601 334.802 401.939 331.727 394.54 330.273 389.093 328.881 383.875 328.807 383.567 328.219 380.489 327.812 378.359 327.329 374.406 327.103 371.359 326.965 369.503 326.966 362.12 327.105 360.223 328.018 347.743 331.372 336.318 337.22 325.759 337.719 324.859 338.285 323.948 338.478 323.735 338.672 323.521 338.83 323.322 338.83 323.292 338.83 323.261 339.123 322.773 339.481 322.205 339.838 321.638 340.558 320.484 341.08 319.64 342.596 317.191 345.313 313.661 347.903 310.776 351.766 306.474 356.839 301.875 360.402 299.446 361.138 298.944 362.137 298.217 362.621 297.831 365.791 295.304 372.745 291.354 378.929 288.567 379.535 288.294 379.979 288.031 379.972 287.952 379.964 287.875 379.874 287.432 379.771 286.968 379.508 285.784 379.499 283.051 379.755 281.954 380.069 280.609 380.362 279.824 380.881 278.937 381.155 278.467 381.549 277.779 381.756 277.406 382.506 276.057 384.05 274.535 385.396 273.817 387.551 272.668 388.451 272.312 390.434 271.822 391.134 271.649 391.518 271.62 392.529 271.663 394.084 271.728 395.529 271.944 396.416 272.241 397.762 272.694 399.931 273.973 401.081 274.994L401.678 275.524 402.026 274.915C402.397 274.269 403.326 272.934 403.597 272.659 403.971 272.28 405.071 271.399 405.661 271.007 406.329 270.563 407.682 269.993 408.992 269.603 409.423 269.475 410.038 269.282 410.359 269.174 410.743 269.044 411.035 269.001 411.977 269Z" fill="#FFFFFF" fill-rule="evenodd"/><path d="M873.982 389C882.559 389 889.361 391.792 894.388 397.377 898.796 402.285 901 407.998 901 414.518 901 421.014 898.796 426.715 894.388 431.623 889.361 437.208 882.559 440 873.982 440 865.429 440 858.639 437.208 853.612 431.623 849.204 426.715 847 421.014 847 414.518 847 411.55 847.596 408.506 848.787 405.387 849.978 402.267 851.574 399.597 853.576 397.377 858.603 391.792 865.405 389 873.982 389ZM873.982 401.058C871.068 401.058 868.429 401.86 866.064 403.465 863.699 405.07 862.015 407.208 861.011 409.879 860.438 411.402 860.152 412.948 860.152 414.518 860.152 417.751 861.25 420.644 863.448 423.198 866.171 426.361 869.682 427.942 873.982 427.942 878.282 427.942 881.805 426.373 884.552 423.233 886.75 420.726 887.848 417.821 887.848 414.518 887.848 411.144 886.75 408.227 884.552 405.767 881.733 402.627 878.21 401.058 873.982 401.058Z" fill="#FFFFFF" fill-rule="evenodd"/><path d="M618.039 389C623.16 389 628.176 390.315 633.088 392.945L628.153 402.754C625.458 400.598 622.74 399.52 619.999 399.52 618.675 399.52 617.49 399.865 616.444 400.554 615.26 401.339 614.667 402.386 614.667 403.694 614.667 404.977 615.445 406.083 617 407.01 617.696 407.439 619.785 408.176 623.267 409.222 627.631 410.527 630.741 412.377 632.597 414.773 634.199 416.813 635 419.434 635 422.636 635 430.844 631.478 436.193 624.434 438.683 621.978 439.561 619.336 440 616.509 440 610.578 440 605.075 438.164 600 434.491L605.283 424.327C608.998 427.762 612.632 429.48 616.184 429.48 617.786 429.48 619.145 429.097 620.259 428.331 621.56 427.47 622.21 426.249 622.21 424.669 622.21 423.233 621.49 422.037 620.051 421.079 618.983 420.361 617.184 419.631 614.654 418.889 611.591 417.966 609.664 417.327 608.875 416.972 607.622 416.428 606.554 415.789 605.672 415.055 603.142 412.925 601.877 409.707 601.877 405.4 601.877 400.904 603.186 397.176 605.804 394.218 608.863 390.739 612.941 389 618.039 389Z" fill="#FFFFFF" fill-rule="evenodd"/><path d="M929.039 389C934.16 389 939.176 390.315 944.088 392.945L939.153 402.754C936.458 400.598 933.74 399.52 930.999 399.52 929.675 399.52 928.49 399.865 927.444 400.554 926.26 401.339 925.667 402.386 925.667 403.694 925.667 404.977 926.445 406.083 928 407.01 928.696 407.439 930.785 408.176 934.267 409.222 938.631 410.527 941.741 412.377 943.597 414.773 945.199 416.813 946 419.434 946 422.636 946 430.844 942.478 436.193 935.434 438.683 932.978 439.561 930.336 440 927.509 440 921.578 440 916.074 438.164 911 434.491L916.283 424.327C919.998 427.762 923.632 429.48 927.184 429.48 928.786 429.48 930.145 429.097 931.259 428.331 932.559 427.47 933.21 426.249 933.21 424.669 933.21 423.233 932.49 422.037 931.051 421.079 929.983 420.361 928.184 419.631 925.654 418.889 922.591 417.966 920.664 417.327 919.875 416.972 918.622 416.428 917.554 415.789 916.672 415.055 914.142 412.925 912.877 409.707 912.877 405.4 912.877 400.904 914.186 397.176 916.804 394.218 919.863 390.739 923.941 389 929.039 389Z" fill="#FFFFFF" fill-rule="evenodd"/><path d="M650 391 683 391 683 401.409 672.657 401.409 672.657 439 660.167 439 660.167 401.409 650 401.409 650 391Z" fill="#FFFFFF" fill-rule="evenodd"/><path d="M702 391 714.221 391 714.221 416.841C714.221 418.916 714.255 420.466 714.324 421.492 714.554 424.733 716.011 426.994 718.696 428.276 719.798 428.812 721.014 429.08 722.345 429.08 725.329 429.08 727.578 428.019 729.092 425.898 730.217 424.336 730.779 421.317 730.779 416.841L730.779 391 743 391 743 418.545C743 421.415 742.771 423.865 742.311 425.895 741.6 429.045 739.902 431.915 737.217 434.505 733.407 438.168 728.312 440 721.932 440 715.437 440 710.365 438.133 706.716 434.4 704.788 432.44 703.469 429.978 702.757 427.015 702.252 424.915 702 422.092 702 418.545L702 391Z" fill="#FFFFFF" fill-rule="evenodd"/><path d="M762 391 780.386 391C784.877 391 789.041 392.254 792.877 394.763 796.643 397.201 799.532 400.459 801.544 404.538 803.181 407.914 804 411.396 804 414.982 804 419.976 802.497 424.6 799.491 428.855 796.485 433.11 792.643 436.058 787.965 437.699 785.485 438.566 782.959 439 780.386 439L762 439 762 391ZM774.456 401.409 774.456 428.591 777.304 428.591C782.203 428.591 785.872 426.958 788.31 423.691 790.162 421.199 791.088 418.296 791.088 414.982 791.088 411.668 790.162 408.777 788.31 406.309 785.848 403.042 782.18 401.409 777.304 401.409L774.456 401.409Z" fill="#FFFFFF" fill-rule="evenodd"/><path d="M819 391 832 391 832 439 819 439 819 391Z" fill="#FFFFFF" fill-rule="evenodd"/><path d="M707.295 363.257C709.206 363.257 710.83 363.912 712.167 365.221 713.504 366.53 714.173 368.134 714.173 370.032 714.173 371.93 713.504 373.543 712.167 374.871 710.83 376.2 709.206 376.864 707.295 376.864 705.308 376.864 703.637 376.2 702.28 374.871 700.923 373.543 700.245 371.93 700.245 370.032 700.245 368.134 700.923 366.53 702.28 365.221 703.637 363.912 705.308 363.257 707.295 363.257ZM647.895 309.907 647.895 330.995 652.031 330.995C656.71 330.995 660.074 330.026 662.121 328.089 664.335 325.986 665.442 323.429 665.442 320.419 665.442 317.41 664.335 314.875 662.121 312.813 660.032 310.875 656.669 309.907 652.031 309.907ZM841.399 293.473 844.94 293.473 862.643 340.167 862.643 378.137 853.371 378.137 847.875 363.375 819.096 363.375 824.439 346.628 841.88 346.628 832.88 320.174ZM868.298 293.448 890.467 293.448 931.245 345.24 931.245 293.448 953.414 293.448 953.414 306.814 947.085 317.491C945.233 322.67 944.307 328.34 944.307 334.501 944.307 340.063 945.097 345.237 946.679 350.023L953.414 362.507 953.414 378.113 931.245 378.113 890.467 326.26 890.467 378.113 877.029 378.113 877.038 378.137 868.287 378.137 868.287 355.055 868.298 355.084ZM626.434 293.16 660.197 293.16C670.272 293.16 677.724 296.158 682.553 302.153 686.466 306.991 688.423 312.677 688.423 319.211 688.423 326.694 686.175 332.67 681.678 337.136 678.806 339.989 674.851 341.974 669.813 343.09L696.575 377.788 696.575 377.824 669.064 377.824 647.895 345.323 647.895 377.824 639.089 377.824ZM708.071 293.139 731.239 293.139 746.039 347.846 764.086 293.139 781.696 293.139 798.495 347.846 814.607 293.139 835.584 293.139 808.465 378.137 787.988 378.137 788.117 377.804 787.879 377.804 772.329 328.742 756.031 377.804 733.487 377.804ZM543.488 293.139 565.407 293.139 582.645 338.294 600.878 293.139 620.725 293.139 633.383 377.824 625.726 377.824 625.726 377.804 613.679 377.804 607.378 329.051 586.79 377.804 577.994 377.804 558.343 329.051 551.106 377.804 529 377.804ZM996.036 290C1006.11 290 1014.65 292.564 1021.64 297.691 1026.64 301.33 1030.9 306.706 1034.44 313.818L1013.46 322.44C1011.66 318.489 1009.57 315.526 1007.19 313.55 1003.77 310.751 999.699 309.352 994.98 309.352 985.334 309.352 978.611 314.282 974.811 324.142 973.39 327.771 972.681 331.526 972.681 335.403 972.681 343.448 975.249 350.151 980.385 355.514 984.185 359.516 989.259 361.516 995.607 361.516 1001.24 361.516 1005.71 359.89 1009.01 356.638 1011.18 354.496 1012.6 351.326 1013.27 347.126L995.037 347.126 995.037 330.379 1039 330.379C1039 339.559 1037.96 347.044 1035.88 352.833 1032.71 361.64 1027.49 368.422 1020.2 373.177 1013.17 377.725 1004.84 380 995.224 380 979.571 380 967.56 374.708 959.192 364.121 952.863 356.1 949.7 346.527 949.7 335.403 949.7 323.081 953.405 312.722 960.816 304.328 969.225 294.777 980.965 290 996.036 290Z" fill="#FFFFFF" fill-rule="evenodd"/></g></svg>